<svg id="Calque_1" data-name="Calque 1" xmlns="http://www.w3.org/2000/svg" viewBox="0 0 512 420"><defs><style>.cls-1{fill:#0aa8a7;}</style></defs><path class="cls-1" d="M15,136H30v45a15,15,0,0,0,30,0V136H75a15,15,0,0,0,15-15V106h45a15,15,0,0,0,0-30H90V61A15,15,0,0,0,75,46H15A15,15,0,0,0,0,61v60A15,15,0,0,0,15,136Z" transform="translate(0 -46)"/><path class="cls-1" d="M512,61a15,15,0,0,0-15-15H437a15,15,0,0,0-15,15V76H377a15,15,0,0,0,0,30h45v15a15,15,0,0,0,15,15h15v45a15,15,0,0,0,30,0V136h15a15,15,0,0,0,15-15Z" transform="translate(0 -46)"/><path class="cls-1" d="M422,361V151a15,15,0,0,0-15-15H105a15,15,0,0,0-15,15V361a15,15,0,0,0,15,15H407A15,15,0,0,0,422,361Z" transform="translate(0 -46)"/><path class="cls-1" d="M437,466h60a15,15,0,0,0,15-15V391a15,15,0,0,0-15-15H482V331a15,15,0,0,0-30,0v45H437a15,15,0,0,0-15,15v15H377a15,15,0,0,0,0,30h45v15A15,15,0,0,0,437,466Z" transform="translate(0 -46)"/><path class="cls-1" d="M15,466H75a15,15,0,0,0,15-15V436h45a15,15,0,0,0,0-30H90V391a15,15,0,0,0-15-15H60V331a15,15,0,0,0-30,0v45H15A15,15,0,0,0,0,391v60A15,15,0,0,0,15,466Z" transform="translate(0 -46)"/><path class="cls-1" d="M195,406a15,15,0,0,0,0,30h31a15,15,0,0,0,0-30Z" transform="translate(0 -46)"/><path class="cls-1" d="M286,406a15,15,0,0,0,0,30h31a15,15,0,0,0,0-30Z" transform="translate(0 -46)"/><path class="cls-1" d="M226,106a15,15,0,0,0,0-30H195a15,15,0,0,0,0,30Z" transform="translate(0 -46)"/><path class="cls-1" d="M317,106a15,15,0,0,0,0-30H286a15,15,0,0,0,0,30Z" transform="translate(0 -46)"/><path class="cls-1" d="M467,286a15,15,0,0,0,15-15V241a15,15,0,0,0-30,0v30A15,15,0,0,0,467,286Z" transform="translate(0 -46)"/></svg>