<svg id="bold" xmlns="http://www.w3.org/2000/svg" viewBox="0 0 512.01 511.98"><defs><style>.cls-1{fill:#0aa8a7;}</style></defs><path class="cls-1" d="M501.5.06c-99.94-1.79-213.93,50.46-286.08,131.5a270.69,270.69,0,0,0-185.51,79,10.66,10.66,0,0,0,6,18.15l82.22,11.78L108,251.86a10.66,10.66,0,0,0,.42,14.66L245.48,403.63a10.7,10.7,0,0,0,14.66.4l11.37-10.15,11.78,82.22c.57,4,3.73,6.95,7.55,8.23a9.77,9.77,0,0,0,3.05.47,12,12,0,0,0,8.25-3.43c48.75-48.75,77-115.89,78.32-184.84,81.13-72.3,133.8-186.24,131.48-286.06A10.72,10.72,0,0,0,501.5.06ZM403.2,184.21a53.34,53.34,0,1,1,0-75.43A53.17,53.17,0,0,1,403.2,184.21Z" transform="translate(0 -0.02)"/><path class="cls-1" d="M58.11,360.64C35.29,383.47,4,486.59.45,498.26A10.67,10.67,0,0,0,10.67,512a10.92,10.92,0,0,0,3.07-.45c11.67-3.5,114.79-34.84,137.62-57.66a65.94,65.94,0,0,0-93.25-93.25Z" transform="translate(0 -0.02)"/></svg>